<?xml version="1.0" encoding="utf-8" standalone="no"?>
<!DOCTYPE svg PUBLIC "-//W3C//DTD SVG 1.1//EN"
  "http://www.w3.org/Graphics/SVG/1.1/DTD/svg11.dtd">
<!-- Created with matplotlib (http://matplotlib.org/) -->
<svg height="360pt" version="1.1" viewBox="0 0 360 360" width="360pt" xmlns="http://www.w3.org/2000/svg" xmlns:xlink="http://www.w3.org/1999/xlink">
 <defs>
  <style type="text/css">
*{stroke-linecap:butt;stroke-linejoin:round;}
  </style>
 </defs>
 <g id="figure_1">
  <g id="patch_1">
   <path d="M 0 360 
L 360 360 
L 360 0 
L 0 0 
z
" style="fill:#ffffff;"/>
  </g>
  <g id="axes_1">
   <g id="patch_2">
    <path d="M 60.3 54.199808 
L 345.7 54.199808 
L 345.7 14.3 
L 60.3 14.3 
z
" style="fill:#ffffff;"/>
   </g>
   <g id="matplotlib.axis_1">
    <g id="xtick_1">
     <g id="line2d_1">
      <defs>
       <path d="M 0 0 
L 0 3.5 
" id="m671d388b5e" style="stroke:#000000;stroke-width:0.8;"/>
      </defs>
      <g>
       <use style="stroke:#000000;stroke-width:0.8;" x="99.218182" xlink:href="#m671d388b5e" y="54.199808"/>
      </g>
     </g>
    </g>
    <g id="xtick_2">
     <g id="line2d_2">
      <g>
       <use style="stroke:#000000;stroke-width:0.8;" x="151.109091" xlink:href="#m671d388b5e" y="54.199808"/>
      </g>
     </g>
    </g>
    <g id="xtick_3">
     <g id="line2d_3">
      <g>
       <use style="stroke:#000000;stroke-width:0.8;" x="203" xlink:href="#m671d388b5e" y="54.199808"/>
      </g>
     </g>
    </g>
    <g id="xtick_4">
     <g id="line2d_4">
      <g>
       <use style="stroke:#000000;stroke-width:0.8;" x="254.890909" xlink:href="#m671d388b5e" y="54.199808"/>
      </g>
     </g>
    </g>
    <g id="xtick_5">
     <g id="line2d_5">
      <g>
       <use style="stroke:#000000;stroke-width:0.8;" x="306.781818" xlink:href="#m671d388b5e" y="54.199808"/>
      </g>
     </g>
    </g>
    <g id="xtick_6">
     <g id="line2d_6">
      <defs>
       <path d="M 0 0 
L 0 2 
" id="m0f2bc25883" style="stroke:#000000;stroke-width:0.6;"/>
      </defs>
      <g>
       <use style="stroke:#000000;stroke-width:0.6;" x="99.218182" xlink:href="#m0f2bc25883" y="54.199808"/>
      </g>
     </g>
    </g>
    <g id="xtick_7">
     <g id="line2d_7">
      <g>
       <use style="stroke:#000000;stroke-width:0.6;" x="151.109091" xlink:href="#m0f2bc25883" y="54.199808"/>
      </g>
     </g>
    </g>
    <g id="xtick_8">
     <g id="line2d_8">
      <g>
       <use style="stroke:#000000;stroke-width:0.6;" x="203" xlink:href="#m0f2bc25883" y="54.199808"/>
      </g>
     </g>
    </g>
    <g id="xtick_9">
     <g id="line2d_9">
      <g>
       <use style="stroke:#000000;stroke-width:0.6;" x="254.890909" xlink:href="#m0f2bc25883" y="54.199808"/>
      </g>
     </g>
    </g>
    <g id="xtick_10">
     <g id="line2d_10">
      <g>
       <use style="stroke:#000000;stroke-width:0.6;" x="306.781818" xlink:href="#m0f2bc25883" y="54.199808"/>
      </g>
     </g>
    </g>
   </g>
   <g id="matplotlib.axis_2">
    <g id="ytick_1">
     <g id="line2d_11">
      <defs>
       <path d="M 0 0 
L -3.5 0 
" id="me455c655c5" style="stroke:#000000;stroke-width:0.8;"/>
      </defs>
      <g>
       <use style="stroke:#000000;stroke-width:0.8;" x="60.3" xlink:href="#me455c655c5" y="52.386315"/>
      </g>
     </g>
     <g id="text_1">
      <!-- 0.00 -->
      <defs>
       <path d="M 31.78125 66.40625 
Q 24.171875 66.40625 20.328125 58.90625 
Q 16.5 51.421875 16.5 36.375 
Q 16.5 21.390625 20.328125 13.890625 
Q 24.171875 6.390625 31.78125 6.390625 
Q 39.453125 6.390625 43.28125 13.890625 
Q 47.125 21.390625 47.125 36.375 
Q 47.125 51.421875 43.28125 58.90625 
Q 39.453125 66.40625 31.78125 66.40625 
z
M 31.78125 74.21875 
Q 44.046875 74.21875 50.515625 64.515625 
Q 56.984375 54.828125 56.984375 36.375 
Q 56.984375 17.96875 50.515625 8.265625 
Q 44.046875 -1.421875 31.78125 -1.421875 
Q 19.53125 -1.421875 13.0625 8.265625 
Q 6.59375 17.96875 6.59375 36.375 
Q 6.59375 54.828125 13.0625 64.515625 
Q 19.53125 74.21875 31.78125 74.21875 
z
" id="DejaVuSans-30"/>
       <path d="M 10.6875 12.40625 
L 21 12.40625 
L 21 0 
L 10.6875 0 
z
" id="DejaVuSans-2e"/>
      </defs>
      <g transform="translate(31.034375 56.185534)scale(0.1 -0.1)">
       <use xlink:href="#DejaVuSans-30"/>
       <use x="63.623047" xlink:href="#DejaVuSans-2e"/>
       <use x="95.410156" xlink:href="#DejaVuSans-30"/>
       <use x="159.033203" xlink:href="#DejaVuSans-30"/>
      </g>
     </g>
    </g>
    <g id="ytick_2">
     <g id="line2d_12">
      <g>
       <use style="stroke:#000000;stroke-width:0.8;" x="60.3" xlink:href="#me455c655c5" y="29.626771"/>
      </g>
     </g>
     <g id="text_2">
      <!-- 0.25 -->
      <defs>
       <path d="M 19.1875 8.296875 
L 53.609375 8.296875 
L 53.609375 0 
L 7.328125 0 
L 7.328125 8.296875 
Q 12.9375 14.109375 22.625 23.890625 
Q 32.328125 33.6875 34.8125 36.53125 
Q 39.546875 41.84375 41.421875 45.53125 
Q 43.3125 49.21875 43.3125 52.78125 
Q 43.3125 58.59375 39.234375 62.25 
Q 35.15625 65.921875 28.609375 65.921875 
Q 23.96875 65.921875 18.8125 64.3125 
Q 13.671875 62.703125 7.8125 59.421875 
L 7.8125 69.390625 
Q 13.765625 71.78125 18.9375 73 
Q 24.125 74.21875 28.421875 74.21875 
Q 39.75 74.21875 46.484375 68.546875 
Q 53.21875 62.890625 53.21875 53.421875 
Q 53.21875 48.921875 51.53125 44.890625 
Q 49.859375 40.875 45.40625 35.40625 
Q 44.1875 33.984375 37.640625 27.21875 
Q 31.109375 20.453125 19.1875 8.296875 
z
" id="DejaVuSans-32"/>
       <path d="M 10.796875 72.90625 
L 49.515625 72.90625 
L 49.515625 64.59375 
L 19.828125 64.59375 
L 19.828125 46.734375 
Q 21.96875 47.46875 24.109375 47.828125 
Q 26.265625 48.1875 28.421875 48.1875 
Q 40.625 48.1875 47.75 41.5 
Q 54.890625 34.8125 54.890625 23.390625 
Q 54.890625 11.625 47.5625 5.09375 
Q 40.234375 -1.421875 26.90625 -1.421875 
Q 22.3125 -1.421875 17.546875 -0.640625 
Q 12.796875 0.140625 7.71875 1.703125 
L 7.71875 11.625 
Q 12.109375 9.234375 16.796875 8.0625 
Q 21.484375 6.890625 26.703125 6.890625 
Q 35.15625 6.890625 40.078125 11.328125 
Q 45.015625 15.765625 45.015625 23.390625 
Q 45.015625 31 40.078125 35.4375 
Q 35.15625 39.890625 26.703125 39.890625 
Q 22.75 39.890625 18.8125 39.015625 
Q 14.890625 38.140625 10.796875 36.28125 
z
" id="DejaVuSans-35"/>
      </defs>
      <g transform="translate(31.034375 33.425989)scale(0.1 -0.1)">
       <use xlink:href="#DejaVuSans-30"/>
       <use x="63.623047" xlink:href="#DejaVuSans-2e"/>
       <use x="95.410156" xlink:href="#DejaVuSans-32"/>
       <use x="159.033203" xlink:href="#DejaVuSans-35"/>
      </g>
     </g>
    </g>
    <g id="text_3">
     <!-- $f_X(x)$ -->
     <defs>
      <path d="M 47.796875 75.984375 
L 46.390625 68.5 
L 37.796875 68.5 
Q 32.90625 68.5 30.6875 66.578125 
Q 28.46875 64.65625 27.390625 59.515625 
L 26.421875 54.6875 
L 41.21875 54.6875 
L 39.890625 47.703125 
L 25.09375 47.703125 
L 15.828125 0 
L 6.78125 0 
L 16.109375 47.703125 
L 7.515625 47.703125 
L 8.796875 54.6875 
L 17.390625 54.6875 
L 18.109375 58.5 
Q 19.96875 68.171875 24.625 72.078125 
Q 29.296875 75.984375 39.3125 75.984375 
z
" id="DejaVuSans-Oblique-66"/>
      <path d="M 13.71875 72.90625 
L 23.6875 72.90625 
L 36.1875 46.578125 
L 58.796875 72.90625 
L 70.3125 72.90625 
L 40.28125 38.09375 
L 58.40625 0 
L 48.484375 0 
L 33.796875 30.71875 
L 7.171875 0 
L -4.296875 0 
L 29.78125 39.203125 
z
" id="DejaVuSans-Oblique-58"/>
      <path d="M 31 75.875 
Q 24.46875 64.65625 21.28125 53.65625 
Q 18.109375 42.671875 18.109375 31.390625 
Q 18.109375 20.125 21.3125 9.0625 
Q 24.515625 -2 31 -13.1875 
L 23.1875 -13.1875 
Q 15.875 -1.703125 12.234375 9.375 
Q 8.59375 20.453125 8.59375 31.390625 
Q 8.59375 42.28125 12.203125 53.3125 
Q 15.828125 64.359375 23.1875 75.875 
z
" id="DejaVuSans-28"/>
      <path d="M 60.015625 54.6875 
L 34.90625 27.875 
L 50.296875 0 
L 39.984375 0 
L 28.421875 21.6875 
L 8.296875 0 
L -2.59375 0 
L 24.3125 28.8125 
L 10.015625 54.6875 
L 20.3125 54.6875 
L 30.8125 34.90625 
L 49.125 54.6875 
z
" id="DejaVuSans-Oblique-78"/>
      <path d="M 8.015625 75.875 
L 15.828125 75.875 
Q 23.140625 64.359375 26.78125 53.3125 
Q 30.421875 42.28125 30.421875 31.390625 
Q 30.421875 20.453125 26.78125 9.375 
Q 23.140625 -1.703125 15.828125 -13.1875 
L 8.015625 -13.1875 
Q 14.5 -2 17.703125 9.0625 
Q 20.90625 20.125 20.90625 31.390625 
Q 20.90625 42.671875 17.703125 53.65625 
Q 14.5 64.65625 8.015625 75.875 
z
" id="DejaVuSans-29"/>
     </defs>
     <g transform="translate(24.954688 45.449904)rotate(-90)scale(0.1 -0.1)">
      <use transform="translate(0 0.015625)" xlink:href="#DejaVuSans-Oblique-66"/>
      <use transform="translate(35.205078 -16.390625)scale(0.7)" xlink:href="#DejaVuSans-Oblique-58"/>
      <use transform="translate(85.893555 0.015625)" xlink:href="#DejaVuSans-28"/>
      <use transform="translate(124.907227 0.015625)" xlink:href="#DejaVuSans-Oblique-78"/>
      <use transform="translate(184.086914 0.015625)" xlink:href="#DejaVuSans-29"/>
     </g>
    </g>
   </g>
   <g id="line2d_13">
    <path clip-path="url(#p830e8f13de)" d="M 73.272727 52.38618 
L 75.89348 52.386092 
L 78.514233 52.385951 
L 81.134986 52.385727 
L 83.755739 52.385375 
L 86.376492 52.384827 
L 88.997245 52.383983 
L 91.617998 52.382699 
L 94.238751 52.380764 
L 96.859504 52.377881 
L 99.480257 52.37363 
L 102.10101 52.36743 
L 104.721763 52.358486 
L 107.342516 52.345722 
L 109.963269 52.327705 
L 112.584022 52.302551 
L 115.204775 52.267815 
L 117.825528 52.220377 
L 120.446281 52.156308 
L 123.067034 52.070737 
L 125.687787 51.957727 
L 128.30854 51.810155 
L 130.929293 51.619634 
L 133.550046 51.376469 
L 136.170799 51.069683 
L 138.791552 50.687123 
L 141.412305 50.215667 
L 144.033058 49.641549 
L 146.653811 48.950815 
L 149.274564 48.129903 
L 151.895317 47.166368 
L 154.51607 46.049698 
L 157.136823 44.77223 
L 159.757576 43.330098 
L 162.378329 41.724164 
L 164.999082 39.960878 
L 167.619835 38.052974 
L 170.240588 36.019957 
L 172.861341 33.888283 
L 175.482094 31.691197 
L 178.102847 29.468187 
L 180.7236 27.264023 
L 183.344353 25.12742 
L 185.965106 23.109345 
L 188.585859 21.261063 
L 191.206612 19.632002 
L 193.827365 18.267575 
L 196.448118 17.207083 
L 199.068871 16.481838 
L 201.689624 16.113628 
L 204.310376 16.113628 
L 206.931129 16.481838 
L 209.551882 17.207083 
L 212.172635 18.267575 
L 214.793388 19.632002 
L 217.414141 21.261063 
L 220.034894 23.109345 
L 222.655647 25.12742 
L 225.2764 27.264023 
L 227.897153 29.468187 
L 230.517906 31.691197 
L 233.138659 33.888283 
L 235.759412 36.019957 
L 238.380165 38.052974 
L 241.000918 39.960878 
L 243.621671 41.724164 
L 246.242424 43.330098 
L 248.863177 44.77223 
L 251.48393 46.049698 
L 254.104683 47.166368 
L 256.725436 48.129903 
L 259.346189 48.950815 
L 261.966942 49.641549 
L 264.587695 50.215667 
L 267.208448 50.687123 
L 269.829201 51.069683 
L 272.449954 51.376469 
L 275.070707 51.619634 
L 277.69146 51.810155 
L 280.312213 51.957727 
L 282.932966 52.070737 
L 285.553719 52.156308 
L 288.174472 52.220377 
L 290.795225 52.267815 
L 293.415978 52.302551 
L 296.036731 52.327705 
L 298.657484 52.345722 
L 301.278237 52.358486 
L 303.89899 52.36743 
L 306.519743 52.37363 
L 309.140496 52.377881 
L 311.761249 52.380764 
L 314.382002 52.382699 
L 317.002755 52.383983 
L 319.623508 52.384827 
L 322.244261 52.385375 
L 324.865014 52.385727 
L 327.485767 52.385951 
L 330.10652 52.386092 
L 332.727273 52.38618 
" style="fill:none;stroke:#000000;stroke-linecap:square;stroke-width:1.5;"/>
   </g>
   <g id="patch_3">
    <path d="M 60.3 54.199808 
L 60.3 14.3 
" style="fill:none;stroke:#000000;stroke-linecap:square;stroke-linejoin:miter;stroke-width:0.8;"/>
   </g>
   <g id="patch_4">
    <path d="M 345.7 54.199808 
L 345.7 14.3 
" style="fill:none;stroke:#000000;stroke-linecap:square;stroke-linejoin:miter;stroke-width:0.8;"/>
   </g>
   <g id="patch_5">
    <path d="M 60.3 54.199808 
L 345.7 54.199808 
" style="fill:none;stroke:#000000;stroke-linecap:square;stroke-linejoin:miter;stroke-width:0.8;"/>
   </g>
   <g id="patch_6">
    <path d="M 60.3 14.3 
L 345.7 14.3 
" style="fill:none;stroke:#000000;stroke-linecap:square;stroke-linejoin:miter;stroke-width:0.8;"/>
   </g>
  </g>
  <g id="axes_2">
   <g id="patch_7">
    <path d="M 60.3 120.199856 
L 345.7 120.199856 
L 345.7 80.300048 
L 60.3 80.300048 
z
" style="fill:#ffffff;"/>
   </g>
   <g id="matplotlib.axis_3">
    <g id="xtick_11">
     <g id="line2d_14">
      <g>
       <use style="stroke:#000000;stroke-width:0.8;" x="99.218182" xlink:href="#m671d388b5e" y="120.199856"/>
      </g>
     </g>
    </g>
    <g id="xtick_12">
     <g id="line2d_15">
      <g>
       <use style="stroke:#000000;stroke-width:0.8;" x="151.109091" xlink:href="#m671d388b5e" y="120.199856"/>
      </g>
     </g>
    </g>
    <g id="xtick_13">
     <g id="line2d_16">
      <g>
       <use style="stroke:#000000;stroke-width:0.8;" x="203" xlink:href="#m671d388b5e" y="120.199856"/>
      </g>
     </g>
    </g>
    <g id="xtick_14">
     <g id="line2d_17">
      <g>
       <use style="stroke:#000000;stroke-width:0.8;" x="254.890909" xlink:href="#m671d388b5e" y="120.199856"/>
      </g>
     </g>
    </g>
    <g id="xtick_15">
     <g id="line2d_18">
      <g>
       <use style="stroke:#000000;stroke-width:0.8;" x="306.781818" xlink:href="#m671d388b5e" y="120.199856"/>
      </g>
     </g>
    </g>
    <g id="xtick_16">
     <g id="line2d_19">
      <g>
       <use style="stroke:#000000;stroke-width:0.6;" x="99.218182" xlink:href="#m0f2bc25883" y="120.199856"/>
      </g>
     </g>
    </g>
    <g id="xtick_17">
     <g id="line2d_20">
      <g>
       <use style="stroke:#000000;stroke-width:0.6;" x="151.109091" xlink:href="#m0f2bc25883" y="120.199856"/>
      </g>
     </g>
    </g>
    <g id="xtick_18">
     <g id="line2d_21">
      <g>
       <use style="stroke:#000000;stroke-width:0.6;" x="203" xlink:href="#m0f2bc25883" y="120.199856"/>
      </g>
     </g>
    </g>
    <g id="xtick_19">
     <g id="line2d_22">
      <g>
       <use style="stroke:#000000;stroke-width:0.6;" x="254.890909" xlink:href="#m0f2bc25883" y="120.199856"/>
      </g>
     </g>
    </g>
    <g id="xtick_20">
     <g id="line2d_23">
      <g>
       <use style="stroke:#000000;stroke-width:0.6;" x="306.781818" xlink:href="#m0f2bc25883" y="120.199856"/>
      </g>
     </g>
    </g>
   </g>
   <g id="matplotlib.axis_4">
    <g id="ytick_3">
     <g id="line2d_24">
      <g>
       <use style="stroke:#000000;stroke-width:0.8;" x="60.3" xlink:href="#me455c655c5" y="118.386238"/>
      </g>
     </g>
     <g id="text_4">
      <!-- 0.100 -->
      <defs>
       <path d="M 12.40625 8.296875 
L 28.515625 8.296875 
L 28.515625 63.921875 
L 10.984375 60.40625 
L 10.984375 69.390625 
L 28.421875 72.90625 
L 38.28125 72.90625 
L 38.28125 8.296875 
L 54.390625 8.296875 
L 54.390625 0 
L 12.40625 0 
z
" id="DejaVuSans-31"/>
      </defs>
      <g transform="translate(24.671875 122.185457)scale(0.1 -0.1)">
       <use xlink:href="#DejaVuSans-30"/>
       <use x="63.623047" xlink:href="#DejaVuSans-2e"/>
       <use x="95.410156" xlink:href="#DejaVuSans-31"/>
       <use x="159.033203" xlink:href="#DejaVuSans-30"/>
       <use x="222.65625" xlink:href="#DejaVuSans-30"/>
      </g>
     </g>
    </g>
    <g id="ytick_4">
     <g id="line2d_25">
      <g>
       <use style="stroke:#000000;stroke-width:0.8;" x="60.3" xlink:href="#me455c655c5" y="82.476391"/>
      </g>
     </g>
     <g id="text_5">
      <!-- 0.101 -->
      <g transform="translate(24.671875 86.27561)scale(0.1 -0.1)">
       <use xlink:href="#DejaVuSans-30"/>
       <use x="63.623047" xlink:href="#DejaVuSans-2e"/>
       <use x="95.410156" xlink:href="#DejaVuSans-31"/>
       <use x="159.033203" xlink:href="#DejaVuSans-30"/>
       <use x="222.65625" xlink:href="#DejaVuSans-31"/>
      </g>
     </g>
    </g>
    <g id="text_6">
     <!-- f(x) -->
     <defs>
      <path d="M 37.109375 75.984375 
L 37.109375 68.5 
L 28.515625 68.5 
Q 23.6875 68.5 21.796875 66.546875 
Q 19.921875 64.59375 19.921875 59.515625 
L 19.921875 54.6875 
L 34.71875 54.6875 
L 34.71875 47.703125 
L 19.921875 47.703125 
L 19.921875 0 
L 10.890625 0 
L 10.890625 47.703125 
L 2.296875 47.703125 
L 2.296875 54.6875 
L 10.890625 54.6875 
L 10.890625 58.5 
Q 10.890625 67.625 15.140625 71.796875 
Q 19.390625 75.984375 28.609375 75.984375 
z
" id="DejaVuSans-66"/>
      <path d="M 54.890625 54.6875 
L 35.109375 28.078125 
L 55.90625 0 
L 45.3125 0 
L 29.390625 21.484375 
L 13.484375 0 
L 2.875 0 
L 24.125 28.609375 
L 4.6875 54.6875 
L 15.28125 54.6875 
L 29.78125 35.203125 
L 44.28125 54.6875 
z
" id="DejaVuSans-78"/>
     </defs>
     <g transform="translate(18.592188 108.871046)rotate(-90)scale(0.1 -0.1)">
      <use xlink:href="#DejaVuSans-66"/>
      <use x="35.205078" xlink:href="#DejaVuSans-28"/>
      <use x="74.21875" xlink:href="#DejaVuSans-78"/>
      <use x="133.398438" xlink:href="#DejaVuSans-29"/>
     </g>
    </g>
   </g>
   <g id="line2d_26">
    <path clip-path="url(#p97cb320b15)" d="M 73.272727 118.386228 
L 131.909455 118.275919 
L 142.547091 118.030586 
L 150.071273 117.643645 
L 156.038727 117.123641 
L 161.227818 116.456882 
L 165.898 115.642119 
L 170.308727 114.653673 
L 174.719455 113.428995 
L 178.870727 112.048277 
L 183.281455 110.33782 
L 187.692182 108.390085 
L 192.621818 105.969699 
L 198.848727 102.645025 
L 215.194364 93.770417 
L 220.124 91.418996 
L 224.534727 89.545983 
L 228.945455 87.917329 
L 233.096727 86.615559 
L 237.507455 85.472514 
L 241.918182 84.559762 
L 246.588364 83.815795 
L 251.777455 83.214477 
L 257.744909 82.752138 
L 265.009636 82.422292 
L 274.868909 82.216357 
L 291.733455 82.125139 
L 332.727273 82.113676 
L 332.727273 82.113676 
" style="fill:none;stroke:#1f77b4;stroke-linecap:square;stroke-width:1.5;"/>
   </g>
   <g id="patch_8">
    <path d="M 60.3 120.199856 
L 60.3 80.300048 
" style="fill:none;stroke:#000000;stroke-linecap:square;stroke-linejoin:miter;stroke-width:0.8;"/>
   </g>
   <g id="patch_9">
    <path d="M 345.7 120.199856 
L 345.7 80.300048 
" style="fill:none;stroke:#000000;stroke-linecap:square;stroke-linejoin:miter;stroke-width:0.8;"/>
   </g>
   <g id="patch_10">
    <path d="M 60.3 120.199856 
L 345.7 120.199856 
" style="fill:none;stroke:#000000;stroke-linecap:square;stroke-linejoin:miter;stroke-width:0.8;"/>
   </g>
   <g id="patch_11">
    <path d="M 60.3 80.300048 
L 345.7 80.300048 
" style="fill:none;stroke:#000000;stroke-linecap:square;stroke-linejoin:miter;stroke-width:0.8;"/>
   </g>
   <g id="legend_1">
    <g id="patch_12">
     <path d="M 262.7 102.978173 
L 338.7 102.978173 
Q 340.7 102.978173 340.7 100.978173 
L 340.7 87.300048 
Q 340.7 85.300048 338.7 85.300048 
L 262.7 85.300048 
Q 260.7 85.300048 260.7 87.300048 
L 260.7 100.978173 
Q 260.7 102.978173 262.7 102.978173 
z
" style="fill:#ffffff;opacity:0.8;stroke:#cccccc;stroke-linejoin:miter;"/>
    </g>
    <g id="line2d_27">
     <path d="M 264.7 93.398486 
L 284.7 93.398486 
" style="fill:none;stroke:#1f77b4;stroke-linecap:square;stroke-width:1.5;"/>
    </g>
    <g id="line2d_28"/>
    <g id="text_7">
     <!-- $f(\infty)$=0.1 -->
     <defs>
      <path d="M 45.5625 17.046875 
Q 44.046875 18.796875 41.65625 22.90625 
Q 38.375 17.046875 35.5 14.453125 
Q 31.890625 11.328125 26.265625 11.328125 
Q 19.671875 11.328125 15.328125 16.265625 
Q 10.75 21.4375 10.75 29.984375 
Q 10.75 38.1875 15.328125 43.75 
Q 19.4375 48.6875 26.375 48.6875 
Q 29.9375 48.6875 32.5625 47.21875 
Q 35.640625 45.609375 37.75 42.828125 
Q 39.703125 40.328125 41.65625 36.96875 
Q 44.921875 42.828125 47.796875 45.40625 
Q 51.421875 48.53125 57.03125 48.53125 
Q 63.625 48.53125 67.96875 43.609375 
Q 72.5625 38.421875 72.5625 29.890625 
Q 72.5625 21.6875 67.96875 16.109375 
Q 63.875 11.1875 56.9375 11.1875 
Q 53.375 11.1875 50.734375 12.640625 
Q 48.09375 13.96875 45.5625 17.046875 
z
M 25.734375 17.71875 
Q 33.796875 17.71875 38.625 29.4375 
Q 32.421875 42.234375 25.734375 42.234375 
Q 20.84375 42.234375 18.359375 38.71875 
Q 15.671875 34.96875 15.671875 29.984375 
Q 15.671875 24.515625 18.359375 21.140625 
Q 21.09375 17.71875 25.734375 17.71875 
z
M 57.5625 42.140625 
Q 50.296875 42.140625 44.671875 30.421875 
Q 50.828125 17.625 57.5625 17.625 
Q 62.453125 17.625 64.9375 21.140625 
Q 67.625 24.90625 67.625 29.890625 
Q 67.625 35.359375 64.9375 38.71875 
Q 62.203125 42.140625 57.5625 42.140625 
z
" id="DejaVuSans-221e"/>
      <path d="M 10.59375 45.40625 
L 73.1875 45.40625 
L 73.1875 37.203125 
L 10.59375 37.203125 
z
M 10.59375 25.484375 
L 73.1875 25.484375 
L 73.1875 17.1875 
L 10.59375 17.1875 
z
" id="DejaVuSans-3d"/>
     </defs>
     <g transform="translate(292.7 96.898486)scale(0.1 -0.1)">
      <use transform="translate(0 0.015625)" xlink:href="#DejaVuSans-Oblique-66"/>
      <use transform="translate(35.205078 0.015625)" xlink:href="#DejaVuSans-28"/>
      <use transform="translate(74.21875 0.015625)" xlink:href="#DejaVuSans-221e"/>
      <use transform="translate(157.519531 0.015625)" xlink:href="#DejaVuSans-29"/>
      <use transform="translate(196.533203 0.015625)" xlink:href="#DejaVuSans-3d"/>
      <use transform="translate(280.322266 0.015625)" xlink:href="#DejaVuSans-30"/>
      <use transform="translate(343.945312 0.015625)" xlink:href="#DejaVuSans-2e"/>
      <use transform="translate(375.732422 0.015625)" xlink:href="#DejaVuSans-31"/>
     </g>
    </g>
   </g>
  </g>
  <g id="axes_3">
   <g id="patch_13">
    <path d="M 60.3 186.199904 
L 345.7 186.199904 
L 345.7 146.300096 
L 60.3 146.300096 
z
" style="fill:#ffffff;"/>
   </g>
   <g id="matplotlib.axis_5">
    <g id="xtick_21">
     <g id="line2d_29">
      <g>
       <use style="stroke:#000000;stroke-width:0.8;" x="99.218182" xlink:href="#m671d388b5e" y="186.199904"/>
      </g>
     </g>
    </g>
    <g id="xtick_22">
     <g id="line2d_30">
      <g>
       <use style="stroke:#000000;stroke-width:0.8;" x="151.109091" xlink:href="#m671d388b5e" y="186.199904"/>
      </g>
     </g>
    </g>
    <g id="xtick_23">
     <g id="line2d_31">
      <g>
       <use style="stroke:#000000;stroke-width:0.8;" x="203" xlink:href="#m671d388b5e" y="186.199904"/>
      </g>
     </g>
    </g>
    <g id="xtick_24">
     <g id="line2d_32">
      <g>
       <use style="stroke:#000000;stroke-width:0.8;" x="254.890909" xlink:href="#m671d388b5e" y="186.199904"/>
      </g>
     </g>
    </g>
    <g id="xtick_25">
     <g id="line2d_33">
      <g>
       <use style="stroke:#000000;stroke-width:0.8;" x="306.781818" xlink:href="#m671d388b5e" y="186.199904"/>
      </g>
     </g>
    </g>
    <g id="xtick_26">
     <g id="line2d_34">
      <g>
       <use style="stroke:#000000;stroke-width:0.6;" x="99.218182" xlink:href="#m0f2bc25883" y="186.199904"/>
      </g>
     </g>
    </g>
    <g id="xtick_27">
     <g id="line2d_35">
      <g>
       <use style="stroke:#000000;stroke-width:0.6;" x="151.109091" xlink:href="#m0f2bc25883" y="186.199904"/>
      </g>
     </g>
    </g>
    <g id="xtick_28">
     <g id="line2d_36">
      <g>
       <use style="stroke:#000000;stroke-width:0.6;" x="203" xlink:href="#m0f2bc25883" y="186.199904"/>
      </g>
     </g>
    </g>
    <g id="xtick_29">
     <g id="line2d_37">
      <g>
       <use style="stroke:#000000;stroke-width:0.6;" x="254.890909" xlink:href="#m0f2bc25883" y="186.199904"/>
      </g>
     </g>
    </g>
    <g id="xtick_30">
     <g id="line2d_38">
      <g>
       <use style="stroke:#000000;stroke-width:0.6;" x="306.781818" xlink:href="#m0f2bc25883" y="186.199904"/>
      </g>
     </g>
    </g>
   </g>
   <g id="matplotlib.axis_6">
    <g id="ytick_5">
     <g id="line2d_39">
      <g>
       <use style="stroke:#000000;stroke-width:0.8;" x="60.3" xlink:href="#me455c655c5" y="184.386281"/>
      </g>
     </g>
     <g id="text_8">
      <!-- 5 -->
      <g transform="translate(46.9375 188.1855)scale(0.1 -0.1)">
       <use xlink:href="#DejaVuSans-35"/>
      </g>
     </g>
    </g>
    <g id="ytick_6">
     <g id="line2d_40">
      <g>
       <use style="stroke:#000000;stroke-width:0.8;" x="60.3" xlink:href="#me455c655c5" y="148.113703"/>
      </g>
     </g>
     <g id="text_9">
      <!-- 10 -->
      <g transform="translate(40.575 151.912922)scale(0.1 -0.1)">
       <use xlink:href="#DejaVuSans-31"/>
       <use x="63.623047" xlink:href="#DejaVuSans-30"/>
      </g>
     </g>
    </g>
    <g id="text_10">
     <!-- f(x) -->
     <g transform="translate(34.495313 174.871094)rotate(-90)scale(0.1 -0.1)">
      <use xlink:href="#DejaVuSans-66"/>
      <use x="35.205078" xlink:href="#DejaVuSans-28"/>
      <use x="74.21875" xlink:href="#DejaVuSans-78"/>
      <use x="133.398438" xlink:href="#DejaVuSans-29"/>
     </g>
    </g>
   </g>
   <g id="line2d_41">
    <path clip-path="url(#pcfac7e9cf4)" d="M 73.272727 184.386276 
L 137.876909 184.276469 
L 149.552364 184.025457 
L 157.854909 183.628464 
L 164.341273 183.107427 
L 170.049273 182.436111 
L 175.238364 181.607595 
L 180.168 180.591289 
L 184.838182 179.393983 
L 189.248909 178.033982 
L 193.659636 176.439549 
L 198.070364 174.608542 
L 202.740545 172.423707 
L 207.929636 169.737635 
L 214.675455 165.963742 
L 226.350909 159.390722 
L 231.280545 156.902886 
L 235.431818 155.045721 
L 239.323636 153.53445 
L 243.215455 152.256865 
L 247.107273 151.208776 
L 251.258545 150.325184 
L 255.669273 149.618216 
L 260.598909 149.059483 
L 266.306909 148.642564 
L 273.571636 148.349731 
L 283.949818 148.179248 
L 304.446727 148.117052 
L 332.727273 148.113724 
L 332.727273 148.113724 
" style="fill:none;stroke:#ff7f0e;stroke-linecap:square;stroke-width:1.5;"/>
   </g>
   <g id="patch_14">
    <path d="M 60.3 186.199904 
L 60.3 146.300096 
" style="fill:none;stroke:#000000;stroke-linecap:square;stroke-linejoin:miter;stroke-width:0.8;"/>
   </g>
   <g id="patch_15">
    <path d="M 345.7 186.199904 
L 345.7 146.300096 
" style="fill:none;stroke:#000000;stroke-linecap:square;stroke-linejoin:miter;stroke-width:0.8;"/>
   </g>
   <g id="patch_16">
    <path d="M 60.3 186.199904 
L 345.7 186.199904 
" style="fill:none;stroke:#000000;stroke-linecap:square;stroke-linejoin:miter;stroke-width:0.8;"/>
   </g>
   <g id="patch_17">
    <path d="M 60.3 146.300096 
L 345.7 146.300096 
" style="fill:none;stroke:#000000;stroke-linecap:square;stroke-linejoin:miter;stroke-width:0.8;"/>
   </g>
   <g id="legend_2">
    <g id="patch_18">
     <path d="M 262.7 168.978221 
L 338.7 168.978221 
Q 340.7 168.978221 340.7 166.978221 
L 340.7 153.300096 
Q 340.7 151.300096 338.7 151.300096 
L 262.7 151.300096 
Q 260.7 151.300096 260.7 153.300096 
L 260.7 166.978221 
Q 260.7 168.978221 262.7 168.978221 
z
" style="fill:#ffffff;opacity:0.8;stroke:#cccccc;stroke-linejoin:miter;"/>
    </g>
    <g id="line2d_42">
     <path d="M 264.7 159.398534 
L 284.7 159.398534 
" style="fill:none;stroke:#ff7f0e;stroke-linecap:square;stroke-width:1.5;"/>
    </g>
    <g id="line2d_43"/>
    <g id="text_11">
     <!-- $f(\infty)$=5.0 -->
     <g transform="translate(292.7 162.898534)scale(0.1 -0.1)">
      <use transform="translate(0 0.015625)" xlink:href="#DejaVuSans-Oblique-66"/>
      <use transform="translate(35.205078 0.015625)" xlink:href="#DejaVuSans-28"/>
      <use transform="translate(74.21875 0.015625)" xlink:href="#DejaVuSans-221e"/>
      <use transform="translate(157.519531 0.015625)" xlink:href="#DejaVuSans-29"/>
      <use transform="translate(196.533203 0.015625)" xlink:href="#DejaVuSans-3d"/>
      <use transform="translate(280.322266 0.015625)" xlink:href="#DejaVuSans-35"/>
      <use transform="translate(343.945312 0.015625)" xlink:href="#DejaVuSans-2e"/>
      <use transform="translate(375.732422 0.015625)" xlink:href="#DejaVuSans-30"/>
     </g>
    </g>
   </g>
  </g>
  <g id="axes_4">
   <g id="patch_19">
    <path d="M 60.3 252.199952 
L 345.7 252.199952 
L 345.7 212.300144 
L 60.3 212.300144 
z
" style="fill:#ffffff;"/>
   </g>
   <g id="matplotlib.axis_7">
    <g id="xtick_31">
     <g id="line2d_44">
      <g>
       <use style="stroke:#000000;stroke-width:0.8;" x="99.218182" xlink:href="#m671d388b5e" y="252.199952"/>
      </g>
     </g>
    </g>
    <g id="xtick_32">
     <g id="line2d_45">
      <g>
       <use style="stroke:#000000;stroke-width:0.8;" x="151.109091" xlink:href="#m671d388b5e" y="252.199952"/>
      </g>
     </g>
    </g>
    <g id="xtick_33">
     <g id="line2d_46">
      <g>
       <use style="stroke:#000000;stroke-width:0.8;" x="203" xlink:href="#m671d388b5e" y="252.199952"/>
      </g>
     </g>
    </g>
    <g id="xtick_34">
     <g id="line2d_47">
      <g>
       <use style="stroke:#000000;stroke-width:0.8;" x="254.890909" xlink:href="#m671d388b5e" y="252.199952"/>
      </g>
     </g>
    </g>
    <g id="xtick_35">
     <g id="line2d_48">
      <g>
       <use style="stroke:#000000;stroke-width:0.8;" x="306.781818" xlink:href="#m671d388b5e" y="252.199952"/>
      </g>
     </g>
    </g>
    <g id="xtick_36">
     <g id="line2d_49">
      <g>
       <use style="stroke:#000000;stroke-width:0.6;" x="99.218182" xlink:href="#m0f2bc25883" y="252.199952"/>
      </g>
     </g>
    </g>
    <g id="xtick_37">
     <g id="line2d_50">
      <g>
       <use style="stroke:#000000;stroke-width:0.6;" x="151.109091" xlink:href="#m0f2bc25883" y="252.199952"/>
      </g>
     </g>
    </g>
    <g id="xtick_38">
     <g id="line2d_51">
      <g>
       <use style="stroke:#000000;stroke-width:0.6;" x="203" xlink:href="#m0f2bc25883" y="252.199952"/>
      </g>
     </g>
    </g>
    <g id="xtick_39">
     <g id="line2d_52">
      <g>
       <use style="stroke:#000000;stroke-width:0.6;" x="254.890909" xlink:href="#m0f2bc25883" y="252.199952"/>
      </g>
     </g>
    </g>
    <g id="xtick_40">
     <g id="line2d_53">
      <g>
       <use style="stroke:#000000;stroke-width:0.6;" x="306.781818" xlink:href="#m0f2bc25883" y="252.199952"/>
      </g>
     </g>
    </g>
   </g>
   <g id="matplotlib.axis_8">
    <g id="ytick_7">
     <g id="line2d_54">
      <g>
       <use style="stroke:#000000;stroke-width:0.8;" x="60.3" xlink:href="#me455c655c5" y="250.752724"/>
      </g>
     </g>
     <g id="text_12">
      <!-- 0 -->
      <g transform="translate(46.9375 254.551943)scale(0.1 -0.1)">
       <use xlink:href="#DejaVuSans-30"/>
      </g>
     </g>
    </g>
    <g id="ytick_8">
     <g id="line2d_55">
      <g>
       <use style="stroke:#000000;stroke-width:0.8;" x="60.3" xlink:href="#me455c655c5" y="213.74263"/>
      </g>
     </g>
     <g id="text_13">
      <!-- 1000 -->
      <g transform="translate(27.85 217.541848)scale(0.1 -0.1)">
       <use xlink:href="#DejaVuSans-31"/>
       <use x="63.623047" xlink:href="#DejaVuSans-30"/>
       <use x="127.246094" xlink:href="#DejaVuSans-30"/>
       <use x="190.869141" xlink:href="#DejaVuSans-30"/>
      </g>
     </g>
    </g>
    <g id="text_14">
     <!-- f(x) -->
     <g transform="translate(21.770313 240.871142)rotate(-90)scale(0.1 -0.1)">
      <use xlink:href="#DejaVuSans-66"/>
      <use x="35.205078" xlink:href="#DejaVuSans-28"/>
      <use x="74.21875" xlink:href="#DejaVuSans-78"/>
      <use x="133.398438" xlink:href="#DejaVuSans-29"/>
     </g>
    </g>
   </g>
   <g id="line2d_56">
    <path clip-path="url(#pbb20f97e82)" d="M 73.272727 250.386324 
L 184.059818 250.276653 
L 202.740545 250.03281 
L 214.156545 249.675907 
L 222.199636 249.209035 
L 228.167091 248.651362 
L 233.096727 247.972633 
L 237.248 247.177512 
L 240.880364 246.252803 
L 243.993818 245.241534 
L 246.847818 244.098023 
L 249.701818 242.712518 
L 252.296364 241.218341 
L 254.890909 239.486701 
L 257.744909 237.309236 
L 260.858364 234.643651 
L 265.269091 230.527014 
L 270.977091 225.224183 
L 274.090545 222.657356 
L 276.685091 220.801407 
L 279.279636 219.233686 
L 281.614727 218.069404 
L 284.209273 217.030876 
L 286.803818 216.228459 
L 289.657818 215.571885 
L 293.030727 215.033128 
L 296.922545 214.639492 
L 302.111636 214.353264 
L 309.635818 214.184389 
L 324.684182 214.117691 
L 332.727273 214.113772 
L 332.727273 214.113772 
" style="fill:none;stroke:#2ca02c;stroke-linecap:square;stroke-width:1.5;"/>
   </g>
   <g id="patch_20">
    <path d="M 60.3 252.199952 
L 60.3 212.300144 
" style="fill:none;stroke:#000000;stroke-linecap:square;stroke-linejoin:miter;stroke-width:0.8;"/>
   </g>
   <g id="patch_21">
    <path d="M 345.7 252.199952 
L 345.7 212.300144 
" style="fill:none;stroke:#000000;stroke-linecap:square;stroke-linejoin:miter;stroke-width:0.8;"/>
   </g>
   <g id="patch_22">
    <path d="M 60.3 252.199952 
L 345.7 252.199952 
" style="fill:none;stroke:#000000;stroke-linecap:square;stroke-linejoin:miter;stroke-width:0.8;"/>
   </g>
   <g id="patch_23">
    <path d="M 60.3 212.300144 
L 345.7 212.300144 
" style="fill:none;stroke:#000000;stroke-linecap:square;stroke-linejoin:miter;stroke-width:0.8;"/>
   </g>
   <g id="legend_3">
    <g id="patch_24">
     <path d="M 67.3 234.978269 
L 143.3 234.978269 
Q 145.3 234.978269 145.3 232.978269 
L 145.3 219.300144 
Q 145.3 217.300144 143.3 217.300144 
L 67.3 217.300144 
Q 65.3 217.300144 65.3 219.300144 
L 65.3 232.978269 
Q 65.3 234.978269 67.3 234.978269 
z
" style="fill:#ffffff;opacity:0.8;stroke:#cccccc;stroke-linejoin:miter;"/>
    </g>
    <g id="line2d_57">
     <path d="M 69.3 225.398582 
L 89.3 225.398582 
" style="fill:none;stroke:#2ca02c;stroke-linecap:square;stroke-width:1.5;"/>
    </g>
    <g id="line2d_58"/>
    <g id="text_15">
     <!-- $f(\infty)$=9.9 -->
     <defs>
      <path d="M 10.984375 1.515625 
L 10.984375 10.5 
Q 14.703125 8.734375 18.5 7.8125 
Q 22.3125 6.890625 25.984375 6.890625 
Q 35.75 6.890625 40.890625 13.453125 
Q 46.046875 20.015625 46.78125 33.40625 
Q 43.953125 29.203125 39.59375 26.953125 
Q 35.25 24.703125 29.984375 24.703125 
Q 19.046875 24.703125 12.671875 31.3125 
Q 6.296875 37.9375 6.296875 49.421875 
Q 6.296875 60.640625 12.9375 67.421875 
Q 19.578125 74.21875 30.609375 74.21875 
Q 43.265625 74.21875 49.921875 64.515625 
Q 56.59375 54.828125 56.59375 36.375 
Q 56.59375 19.140625 48.40625 8.859375 
Q 40.234375 -1.421875 26.421875 -1.421875 
Q 22.703125 -1.421875 18.890625 -0.6875 
Q 15.09375 0.046875 10.984375 1.515625 
z
M 30.609375 32.421875 
Q 37.25 32.421875 41.125 36.953125 
Q 45.015625 41.5 45.015625 49.421875 
Q 45.015625 57.28125 41.125 61.84375 
Q 37.25 66.40625 30.609375 66.40625 
Q 23.96875 66.40625 20.09375 61.84375 
Q 16.21875 57.28125 16.21875 49.421875 
Q 16.21875 41.5 20.09375 36.953125 
Q 23.96875 32.421875 30.609375 32.421875 
z
" id="DejaVuSans-39"/>
     </defs>
     <g transform="translate(97.3 228.898582)scale(0.1 -0.1)">
      <use transform="translate(0 0.015625)" xlink:href="#DejaVuSans-Oblique-66"/>
      <use transform="translate(35.205078 0.015625)" xlink:href="#DejaVuSans-28"/>
      <use transform="translate(74.21875 0.015625)" xlink:href="#DejaVuSans-221e"/>
      <use transform="translate(157.519531 0.015625)" xlink:href="#DejaVuSans-29"/>
      <use transform="translate(196.533203 0.015625)" xlink:href="#DejaVuSans-3d"/>
      <use transform="translate(280.322266 0.015625)" xlink:href="#DejaVuSans-39"/>
      <use transform="translate(343.945312 0.015625)" xlink:href="#DejaVuSans-2e"/>
      <use transform="translate(375.732422 0.015625)" xlink:href="#DejaVuSans-39"/>
     </g>
    </g>
   </g>
  </g>
  <g id="axes_5">
   <g id="patch_25">
    <path d="M 60.3 318.2 
L 345.7 318.2 
L 345.7 278.300192 
L 60.3 278.300192 
z
" style="fill:#ffffff;"/>
   </g>
   <g id="matplotlib.axis_9">
    <g id="xtick_41">
     <g id="line2d_59">
      <g>
       <use style="stroke:#000000;stroke-width:0.8;" x="99.218182" xlink:href="#m671d388b5e" y="318.2"/>
      </g>
     </g>
     <g id="text_16">
      <!-- −4 -->
      <defs>
       <path d="M 10.59375 35.5 
L 73.1875 35.5 
L 73.1875 27.203125 
L 10.59375 27.203125 
z
" id="DejaVuSans-2212"/>
       <path d="M 37.796875 64.3125 
L 12.890625 25.390625 
L 37.796875 25.390625 
z
M 35.203125 72.90625 
L 47.609375 72.90625 
L 47.609375 25.390625 
L 58.015625 25.390625 
L 58.015625 17.1875 
L 47.609375 17.1875 
L 47.609375 0 
L 37.796875 0 
L 37.796875 17.1875 
L 4.890625 17.1875 
L 4.890625 26.703125 
z
" id="DejaVuSans-34"/>
      </defs>
      <g transform="translate(91.847088 332.798437)scale(0.1 -0.1)">
       <use xlink:href="#DejaVuSans-2212"/>
       <use x="83.789062" xlink:href="#DejaVuSans-34"/>
      </g>
     </g>
    </g>
    <g id="xtick_42">
     <g id="line2d_60">
      <g>
       <use style="stroke:#000000;stroke-width:0.8;" x="151.109091" xlink:href="#m671d388b5e" y="318.2"/>
      </g>
     </g>
     <g id="text_17">
      <!-- −2 -->
      <g transform="translate(143.737997 332.798437)scale(0.1 -0.1)">
       <use xlink:href="#DejaVuSans-2212"/>
       <use x="83.789062" xlink:href="#DejaVuSans-32"/>
      </g>
     </g>
    </g>
    <g id="xtick_43">
     <g id="line2d_61">
      <g>
       <use style="stroke:#000000;stroke-width:0.8;" x="203" xlink:href="#m671d388b5e" y="318.2"/>
      </g>
     </g>
     <g id="text_18">
      <!-- 0 -->
      <g transform="translate(199.81875 332.798437)scale(0.1 -0.1)">
       <use xlink:href="#DejaVuSans-30"/>
      </g>
     </g>
    </g>
    <g id="xtick_44">
     <g id="line2d_62">
      <g>
       <use style="stroke:#000000;stroke-width:0.8;" x="254.890909" xlink:href="#m671d388b5e" y="318.2"/>
      </g>
     </g>
     <g id="text_19">
      <!-- 2 -->
      <g transform="translate(251.709659 332.798437)scale(0.1 -0.1)">
       <use xlink:href="#DejaVuSans-32"/>
      </g>
     </g>
    </g>
    <g id="xtick_45">
     <g id="line2d_63">
      <g>
       <use style="stroke:#000000;stroke-width:0.8;" x="306.781818" xlink:href="#m671d388b5e" y="318.2"/>
      </g>
     </g>
     <g id="text_20">
      <!-- 4 -->
      <g transform="translate(303.600568 332.798437)scale(0.1 -0.1)">
       <use xlink:href="#DejaVuSans-34"/>
      </g>
     </g>
    </g>
    <g id="xtick_46">
     <g id="line2d_64">
      <g>
       <use style="stroke:#000000;stroke-width:0.6;" x="99.218182" xlink:href="#m0f2bc25883" y="318.2"/>
      </g>
     </g>
    </g>
    <g id="xtick_47">
     <g id="line2d_65">
      <g>
       <use style="stroke:#000000;stroke-width:0.6;" x="151.109091" xlink:href="#m0f2bc25883" y="318.2"/>
      </g>
     </g>
    </g>
    <g id="xtick_48">
     <g id="line2d_66">
      <g>
       <use style="stroke:#000000;stroke-width:0.6;" x="203" xlink:href="#m0f2bc25883" y="318.2"/>
      </g>
     </g>
    </g>
    <g id="xtick_49">
     <g id="line2d_67">
      <g>
       <use style="stroke:#000000;stroke-width:0.6;" x="254.890909" xlink:href="#m0f2bc25883" y="318.2"/>
      </g>
     </g>
    </g>
    <g id="xtick_50">
     <g id="line2d_68">
      <g>
       <use style="stroke:#000000;stroke-width:0.6;" x="306.781818" xlink:href="#m0f2bc25883" y="318.2"/>
      </g>
     </g>
    </g>
    <g id="text_21">
     <!-- x -->
     <g transform="translate(200.040625 346.476562)scale(0.1 -0.1)">
      <use xlink:href="#DejaVuSans-78"/>
     </g>
    </g>
   </g>
   <g id="matplotlib.axis_10">
    <g id="ytick_9">
     <g id="line2d_69">
      <g>
       <use style="stroke:#000000;stroke-width:0.8;" x="60.3" xlink:href="#me455c655c5" y="316.386383"/>
      </g>
     </g>
     <g id="text_22">
      <!-- 0.0 -->
      <g transform="translate(37.396875 320.185602)scale(0.1 -0.1)">
       <use xlink:href="#DejaVuSans-30"/>
       <use x="63.623047" xlink:href="#DejaVuSans-2e"/>
       <use x="95.410156" xlink:href="#DejaVuSans-30"/>
      </g>
     </g>
    </g>
    <g id="ytick_10">
     <g id="line2d_70">
      <g>
       <use style="stroke:#000000;stroke-width:0.8;" x="60.3" xlink:href="#me455c655c5" y="290.351296"/>
      </g>
     </g>
     <g id="text_23">
      <!-- 2.5 -->
      <g transform="translate(37.396875 294.150515)scale(0.1 -0.1)">
       <use xlink:href="#DejaVuSans-32"/>
       <use x="63.623047" xlink:href="#DejaVuSans-2e"/>
       <use x="95.410156" xlink:href="#DejaVuSans-35"/>
      </g>
     </g>
    </g>
    <g id="text_24">
     <!-- f(x) -->
     <g transform="translate(31.317188 306.87119)rotate(-90)scale(0.1 -0.1)">
      <use xlink:href="#DejaVuSans-66"/>
      <use x="35.205078" xlink:href="#DejaVuSans-28"/>
      <use x="74.21875" xlink:href="#DejaVuSans-78"/>
      <use x="133.398438" xlink:href="#DejaVuSans-29"/>
     </g>
    </g>
    <g id="text_25">
     <!-- 1e7 -->
     <defs>
      <path d="M 56.203125 29.59375 
L 56.203125 25.203125 
L 14.890625 25.203125 
Q 15.484375 15.921875 20.484375 11.0625 
Q 25.484375 6.203125 34.421875 6.203125 
Q 39.59375 6.203125 44.453125 7.46875 
Q 49.3125 8.734375 54.109375 11.28125 
L 54.109375 2.78125 
Q 49.265625 0.734375 44.1875 -0.34375 
Q 39.109375 -1.421875 33.890625 -1.421875 
Q 20.796875 -1.421875 13.15625 6.1875 
Q 5.515625 13.8125 5.515625 26.8125 
Q 5.515625 40.234375 12.765625 48.109375 
Q 20.015625 56 32.328125 56 
Q 43.359375 56 49.78125 48.890625 
Q 56.203125 41.796875 56.203125 29.59375 
z
M 47.21875 32.234375 
Q 47.125 39.59375 43.09375 43.984375 
Q 39.0625 48.390625 32.421875 48.390625 
Q 24.90625 48.390625 20.390625 44.140625 
Q 15.875 39.890625 15.1875 32.171875 
z
" id="DejaVuSans-65"/>
      <path d="M 8.203125 72.90625 
L 55.078125 72.90625 
L 55.078125 68.703125 
L 28.609375 0 
L 18.3125 0 
L 43.21875 64.59375 
L 8.203125 64.59375 
z
" id="DejaVuSans-37"/>
     </defs>
     <g transform="translate(60.3 275.300192)scale(0.1 -0.1)">
      <use xlink:href="#DejaVuSans-31"/>
      <use x="63.623047" xlink:href="#DejaVuSans-65"/>
      <use x="125.146484" xlink:href="#DejaVuSans-37"/>
     </g>
    </g>
   </g>
   <g id="line2d_71">
    <path clip-path="url(#p84c71669ac)" d="M 73.272727 316.386372 
L 299.776545 316.277641 
L 307.041273 316.04352 
L 311.192545 315.703008 
L 314.046545 315.272723 
L 316.381636 314.711346 
L 318.197818 314.073076 
L 319.754545 313.324155 
L 321.311273 312.318736 
L 322.608545 311.219294 
L 323.905818 309.806883 
L 324.943636 308.389831 
L 325.981455 306.652598 
L 327.019273 304.519675 
L 328.057091 301.897045 
L 329.094909 298.667475 
L 330.132727 294.68458 
L 331.170545 289.765317 
L 332.208364 283.68048 
L 332.727273 280.11382 
L 332.727273 280.11382 
" style="fill:none;stroke:#d62728;stroke-linecap:square;stroke-width:1.5;"/>
   </g>
   <g id="patch_26">
    <path d="M 60.3 318.2 
L 60.3 278.300192 
" style="fill:none;stroke:#000000;stroke-linecap:square;stroke-linejoin:miter;stroke-width:0.8;"/>
   </g>
   <g id="patch_27">
    <path d="M 345.7 318.2 
L 345.7 278.300192 
" style="fill:none;stroke:#000000;stroke-linecap:square;stroke-linejoin:miter;stroke-width:0.8;"/>
   </g>
   <g id="patch_28">
    <path d="M 60.3 318.2 
L 345.7 318.2 
" style="fill:none;stroke:#000000;stroke-linecap:square;stroke-linejoin:miter;stroke-width:0.8;"/>
   </g>
   <g id="patch_29">
    <path d="M 60.3 278.300192 
L 345.7 278.300192 
" style="fill:none;stroke:#000000;stroke-linecap:square;stroke-linejoin:miter;stroke-width:0.8;"/>
   </g>
   <g id="legend_4">
    <g id="patch_30">
     <path d="M 67.3 300.978317 
L 149.6 300.978317 
Q 151.6 300.978317 151.6 298.978317 
L 151.6 285.300192 
Q 151.6 283.300192 149.6 283.300192 
L 67.3 283.300192 
Q 65.3 283.300192 65.3 285.300192 
L 65.3 298.978317 
Q 65.3 300.978317 67.3 300.978317 
z
" style="fill:#ffffff;opacity:0.8;stroke:#cccccc;stroke-linejoin:miter;"/>
    </g>
    <g id="line2d_72">
     <path d="M 69.3 291.39863 
L 89.3 291.39863 
" style="fill:none;stroke:#d62728;stroke-linecap:square;stroke-width:1.5;"/>
    </g>
    <g id="line2d_73"/>
    <g id="text_26">
     <!-- $f(\infty)$=10.0 -->
     <g transform="translate(97.3 294.89863)scale(0.1 -0.1)">
      <use transform="translate(0 0.015625)" xlink:href="#DejaVuSans-Oblique-66"/>
      <use transform="translate(35.205078 0.015625)" xlink:href="#DejaVuSans-28"/>
      <use transform="translate(74.21875 0.015625)" xlink:href="#DejaVuSans-221e"/>
      <use transform="translate(157.519531 0.015625)" xlink:href="#DejaVuSans-29"/>
      <use transform="translate(196.533203 0.015625)" xlink:href="#DejaVuSans-3d"/>
      <use transform="translate(280.322266 0.015625)" xlink:href="#DejaVuSans-31"/>
      <use transform="translate(343.945312 0.015625)" xlink:href="#DejaVuSans-30"/>
      <use transform="translate(407.568359 0.015625)" xlink:href="#DejaVuSans-2e"/>
      <use transform="translate(439.355469 0.015625)" xlink:href="#DejaVuSans-30"/>
     </g>
    </g>
   </g>
  </g>
 </g>
 <defs>
  <clipPath id="p830e8f13de">
   <rect height="39.899808" width="285.4" x="60.3" y="14.3"/>
  </clipPath>
  <clipPath id="p97cb320b15">
   <rect height="39.899808" width="285.4" x="60.3" y="80.300048"/>
  </clipPath>
  <clipPath id="pcfac7e9cf4">
   <rect height="39.899808" width="285.4" x="60.3" y="146.300096"/>
  </clipPath>
  <clipPath id="pbb20f97e82">
   <rect height="39.899808" width="285.4" x="60.3" y="212.300144"/>
  </clipPath>
  <clipPath id="p84c71669ac">
   <rect height="39.899808" width="285.4" x="60.3" y="278.300192"/>
  </clipPath>
 </defs>
</svg>
